<svg width="413" height="234" viewBox="0 0 413 234" fill="none" xmlns="http://www.w3.org/2000/svg">
<g clip-path="url(#clip0_1_17725)">
<path d="M1.57668 232.619C1.50753 205.439 1.4384 63.6135 1.38307 36.4334C1.54904 36.323 1.46603 36.1572 1.47986 36.0191C1.5905 34.2375 1.83947 32.4835 2.22673 30.7433C3.81726 23.5202 7.23348 17.2914 12.5307 12.1122C18.3811 6.39449 25.3794 2.98316 33.4842 1.83685C34.2311 1.72636 35.0056 1.7678 35.7248 1.5192C53.6495 1.47777 359.268 1.43635 377.192 1.3811C377.275 1.57446 377.455 1.49159 377.579 1.5054C378.506 1.6297 379.447 1.69875 380.373 1.85067C388.658 3.2594 395.753 6.96074 401.479 13.1066C408.007 20.1088 411.423 28.4231 411.492 38.0079C411.589 52.2332 411.575 181.09 411.617 195.315C411.617 197.912 411.396 200.467 410.829 202.994C408.228 214.457 401.7 222.924 391.327 228.393C386.279 231.058 380.83 232.315 375.118 232.412C374.896 232.412 374.675 232.412 374.44 232.412C346.045 232.481 29.9712 232.55 1.57668 232.619V232.619Z" stroke="#00DC7D" stroke-width="2" stroke-miterlimit="10"/>
</g>
<defs>
<clipPath id="clip0_1_17725">
<rect width="413" height="234" fill="white" transform="translate(413 234) rotate(-180)"/>
</clipPath>
</defs>
</svg>
