<svg width="413" height="234" viewBox="0 0 413 234" fill="none" xmlns="http://www.w3.org/2000/svg">
<g clip-path="url(#clip0_1_17713)">
<path d="M411.423 232.619C411.492 205.439 411.562 63.6135 411.617 36.4334C411.451 36.323 411.534 36.1572 411.52 36.0191C411.41 34.2375 411.161 32.4835 410.773 30.7433C409.183 23.5202 405.767 17.2914 400.469 12.1122C394.619 6.39449 387.621 2.98316 379.516 1.83685C378.769 1.72636 377.994 1.7678 377.275 1.5192C359.351 1.47777 53.7325 1.43635 35.8078 1.3811C35.7248 1.57446 35.545 1.49159 35.4206 1.5054C34.4939 1.6297 33.5534 1.69875 32.6268 1.85067C24.3421 3.2594 17.247 6.96074 11.521 13.1066C4.99291 20.1088 1.57672 28.4231 1.50756 38.0079C1.41075 52.2332 1.42458 181.09 1.38309 195.315C1.38309 197.912 1.60438 200.467 2.17144 202.994C4.77162 214.457 11.2997 222.924 21.6728 228.393C26.721 231.058 32.1703 232.315 37.8824 232.412C38.1037 232.412 38.325 232.412 38.5601 232.412C66.9547 232.481 383.029 232.55 411.423 232.619V232.619Z" stroke="#00DC7D" stroke-width="2" stroke-miterlimit="10"/>
</g>
<defs>
<clipPath id="clip0_1_17713">
<rect width="413" height="234" fill="white" transform="matrix(1 0 0 -1 0 234)"/>
</clipPath>
</defs>
</svg>
