<svg width="192" height="182" viewBox="0 0 192 182" fill="none" xmlns="http://www.w3.org/2000/svg">
<g clip-path="url(#clip0_1_17738)">
<path d="M0.308299 0L0 127.305C0.252244 127.473 0.140136 127.737 0.154149 127.947C0.336326 130.721 0.728706 133.468 1.31728 136.172C3.81169 147.452 9.16488 157.169 17.4749 165.256C26.6398 174.179 37.5984 179.504 50.3087 181.303C51.4719 181.47 52.677 181.414 53.8121 181.805L138.076 182.014C138.202 181.721 138.482 181.847 138.692 181.819C140.15 181.624 141.621 181.512 143.065 181.275C156.055 179.086 167.154 173.286 176.137 163.694C186.367 152.777 191.72 139.783 191.818 124.837C191.972 102.628 191.944 80.418 192.014 58.2222C192.014 54.179 191.678 50.1776 190.781 46.232C186.717 28.3582 176.487 15.1411 160.217 6.60855C152.3 2.43987 143.765 0.474031 134.825 0.306726C134.474 0.306726 134.124 0.33461 133.774 0.320668C89.2805 0.223073 44.8014 0.111537 0.308299 0Z" fill="#00DC7D"/>
</g>
<defs>
<clipPath id="clip0_1_17738">
<rect width="192" height="182" fill="white"/>
</clipPath>
</defs>
</svg>
