<svg width="413" height="234" viewBox="0 0 413 234" fill="none" xmlns="http://www.w3.org/2000/svg">
<g clip-path="url(#clip0_1_17723)">
<path d="M1.57668 1.3811C1.50752 28.5612 1.43839 170.386 1.38307 197.567C1.54904 197.677 1.46601 197.843 1.47984 197.981C1.59049 199.763 1.83947 201.516 2.22673 203.257C3.81727 210.48 7.23348 216.709 12.5307 221.888C18.3811 227.606 25.3794 231.017 33.4842 232.163C34.2311 232.274 35.0056 232.232 35.7248 232.481C53.6495 232.522 359.268 232.564 377.192 232.619C377.275 232.426 377.455 232.508 377.579 232.495C378.506 232.37 379.447 232.301 380.373 232.149C388.658 230.741 395.753 227.039 401.479 220.893C408.007 213.891 411.423 205.577 411.492 195.992C411.589 181.767 411.575 52.91 411.617 38.6847C411.617 36.0882 411.396 33.5331 410.829 31.0057C408.228 19.5426 401.7 11.0764 391.327 5.60727C386.279 2.94175 380.83 1.68495 375.118 1.58827C374.896 1.58827 374.675 1.58827 374.44 1.58827C346.045 1.51921 29.9712 1.45016 1.57668 1.3811Z" stroke="#00DC7D" stroke-width="2" stroke-miterlimit="10"/>
</g>
<defs>
<clipPath id="clip0_1_17723">
<rect width="413" height="234" fill="white" transform="matrix(-1 0 0 1 413 0)"/>
</clipPath>
</defs>
</svg>
