<svg width="202" height="191" viewBox="0 0 202 191" fill="none" xmlns="http://www.w3.org/2000/svg">
<g clip-path="url(#clip0_1_17768)">
<path d="M201.66 0L201.984 133.607C201.725 133.783 201.838 134.057 201.822 134.281C201.628 137.188 201.223 140.062 200.592 142.921C197.971 154.756 192.324 164.953 183.603 173.432C173.959 182.794 162.422 188.382 149.057 190.261C147.827 190.438 146.565 190.374 145.368 190.791L56.7134 191C56.584 190.679 56.2927 190.823 56.0662 190.791C54.529 190.599 52.9918 190.47 51.4708 190.213C37.7981 187.917 26.1157 181.831 16.6823 171.762C5.9545 160.312 0.307434 146.695 0.210349 130.989C0.0485421 107.688 0.0809036 84.3875 0 61.0866C0 56.8471 0.355976 52.6398 1.29446 48.4967C5.56617 29.7404 16.3425 15.8658 33.4455 6.90516C41.7786 2.5533 50.7427 0.497814 60.1599 0.32117C60.532 0.32117 60.9042 0.337229 61.2764 0.337229C108.071 0.224819 154.882 0.11241 201.676 0L201.66 0Z" fill="#033434"/>
</g>
<defs>
<clipPath id="clip0_1_17768">
<rect width="202" height="191" fill="white"/>
</clipPath>
</defs>
</svg>
