<svg width="185" height="176" viewBox="0 0 185 176" fill="none" xmlns="http://www.w3.org/2000/svg">
<g clip-path="url(#clip0_1_17793)">
<path d="M55.6871 176C46.6979 175.853 38.4044 173.809 30.9803 169.934C15.2091 161.676 5.20336 148.715 1.24385 131.412C0.414498 127.778 -0.000180405 123.956 0.0131963 119.707C0.0131963 112.238 0.0131963 104.769 0.0131963 97.3131C0.0131963 83.7243 -0.0135571 69.6811 0.0533265 55.8652C0.12021 41.4613 5.20336 28.7009 15.1824 17.9581C23.7301 8.71181 34.5251 2.92621 47.233 0.734892C48.1292 0.574552 49.0255 0.48102 49.9217 0.374127C50.43 0.32068 50.925 0.267234 51.4333 0.200425L51.5136 0L132.871 0.0534467C133.486 0.267234 134.155 0.32068 134.877 0.374127C135.265 0.40085 135.666 0.427574 136.054 0.48102C148.374 2.20468 159.102 7.42909 167.958 16.034C175.957 23.8105 181.254 33.3374 183.702 44.334C184.277 46.9396 184.665 49.6253 184.853 52.351C184.853 52.3778 184.853 52.4045 184.853 52.4312L185 52.5247V175.973H56.677C56.4496 175.973 56.2355 175.973 56.0081 175.987H55.6871V176ZM51.6607 2.0577C51.1658 2.12451 50.6441 2.17795 50.1224 2.2314C49.2529 2.32493 48.3968 2.43182 47.5407 2.5788C35.2475 4.68995 24.8136 10.2885 16.5334 19.2141C6.90221 29.6095 1.97957 41.9423 1.92607 55.8652C1.85918 69.6811 1.87256 83.7243 1.88594 97.2997C1.88594 104.769 1.88594 112.238 1.88594 119.707C1.88594 123.809 2.27386 127.51 3.06309 130.985C6.90221 147.727 16.5869 160.273 31.8498 168.264C39.0063 172.005 47.019 173.982 55.6737 174.116H55.9412C56.182 174.103 56.4228 174.089 56.6636 174.089H183.114V53.3665C182.926 53.0191 182.953 52.6584 182.967 52.5114C182.793 49.8524 182.418 47.2469 181.856 44.7483C179.489 34.1124 174.365 24.9062 166.634 17.3835C158.072 9.05922 147.692 3.99514 135.787 2.33829C135.439 2.28485 135.091 2.25812 134.73 2.2314C133.981 2.17795 133.205 2.11114 132.416 1.87063H52.5302C52.3162 2.00425 52.0352 2.07106 51.6607 2.0577V2.0577Z" fill="#00DC7D"/>
</g>
<defs>
<clipPath id="clip0_1_17793">
<rect width="185" height="176" fill="white"/>
</clipPath>
</defs>
</svg>
