<svg width="77" height="24" viewBox="0 0 77 24" fill="none" xmlns="http://www.w3.org/2000/svg">
<path d="M11.4226 5.2146C8.80214 5.2146 5.98574 6.43897 4.3809 9.20475C3.98906 9.83498 3.75568 10.7797 3.59865 11.4795L3.52086 11.4447C3.67788 10.7449 3.83347 9.80018 3.83347 9.10036V5.49556H0V22.9924H3.83347V16.4479C3.83347 9.90328 8.13658 8.64412 10.1318 8.64412C12.7912 8.64412 14.1612 10.7436 14.1612 14.0687V22.9924H17.9947V14.0687C17.9947 9.44962 16.3509 5.2146 11.4226 5.2146V5.2146Z" fill="#325959"/>
<path d="M30.1333 5.284C24.3434 5.2492 19.3359 8.18897 19.3359 14.2425C19.3359 20.296 24.3434 23.201 30.1333 23.201C35.9231 23.201 40.9696 20.296 40.9696 14.2425C40.9696 8.18897 35.962 5.31879 30.1333 5.284ZM30.1333 20.2625C26.2609 20.2625 23.1708 18.3383 23.1708 14.2425C23.1708 10.1467 26.5346 8.15288 30.1333 8.18768C33.85 8.22248 37.1361 10.2872 37.1361 14.2425C37.1361 18.1979 33.9278 20.2625 30.1333 20.2625V20.2625Z" fill="#325959"/>
<path d="M52.7293 5.284C46.9395 5.2492 41.9319 8.18897 41.9319 14.2425C41.9319 20.296 46.9395 23.201 52.7293 23.201C58.5191 23.201 63.5656 20.296 63.5656 14.2425C63.5656 8.18897 58.558 5.31879 52.7293 5.284ZM52.7293 8.18897C54.7994 8.2083 56.7356 8.85915 58.0451 10.1132L45.9483 15.8522C45.8302 15.3586 45.7668 14.8238 45.7668 14.2438C45.7668 10.2897 49.1306 8.15417 52.7293 8.18897V8.18897ZM52.7293 20.2625C50.5496 20.2625 48.6178 19.6529 47.3443 18.3886L59.5218 12.6109C59.6572 13.1135 59.7306 13.6561 59.7306 14.2425C59.7306 18.2675 56.5224 20.2625 52.7278 20.2625H52.7293Z" fill="#325959"/>
<path d="M72.7567 19.7729C71.5437 19.7729 70.6044 19.4223 70.6044 17.8835V8.57444H75.5731V5.355H68.6495C67.8672 5.355 66.8113 5.45939 66.029 5.59987V5.53028C66.8113 5.3898 67.9061 5.2854 68.5717 4.90005C70.371 3.81487 71.3492 1.92548 71.427 0L67.5546 0.0347978C67.5546 2.45002 65.2857 5.35371 63.4863 5.35371H62.743V8.57315H66.7724V17.2172C66.7724 21.2769 67.8283 22.9911 72.9526 22.9911H76.5124V19.7716H72.7567V19.7729Z" fill="#325959"/>
</svg>
