<svg width="136" height="41" viewBox="0 0 136 41" fill="none" xmlns="http://www.w3.org/2000/svg">
<path d="M20.1855 9.21484C15.5547 9.21484 10.5777 11.3785 7.74173 16.2661C7.04928 17.3798 6.63686 19.0492 6.35937 20.2859L6.2219 20.2244C6.49939 18.9877 6.77433 17.3183 6.77433 16.0816V9.71134H0V40.631H6.77433V29.0657C6.77433 17.5005 14.3786 15.2753 17.9045 15.2753C22.604 15.2753 25.0251 18.9854 25.0251 24.8614V40.631H31.7994V24.8614C31.7994 16.6988 28.8947 9.21484 20.1855 9.21484V9.21484Z" fill="#00DD7D"/>
<path d="M53.2502 9.33794C43.0186 9.27645 34.1695 14.4715 34.1695 25.169C34.1695 35.8665 43.0186 41.0001 53.2502 41.0001C63.4817 41.0001 72.3996 35.8665 72.3996 25.169C72.3996 14.4715 63.5504 9.39943 53.2502 9.33794ZM53.2502 35.8073C46.4071 35.8073 40.9464 32.407 40.9464 25.169C40.9464 17.931 46.8908 14.4077 53.2502 14.4692C59.8183 14.5307 65.6252 18.1793 65.6252 25.169C65.6252 32.1587 59.9558 35.8073 53.2502 35.8073V35.8073Z" fill="#00DD7D"/>
<path d="M93.1808 9.33794C82.9493 9.27645 74.1002 14.4715 74.1002 25.169C74.1002 35.8665 82.9493 41.0001 93.1808 41.0001C103.412 41.0001 112.33 35.8665 112.33 25.169C112.33 14.4715 103.481 9.39943 93.1808 9.33794ZM93.1808 14.4715C96.8391 14.5056 100.261 15.6558 102.575 17.8718L81.1978 28.0136C80.9891 27.1413 80.877 26.1962 80.877 25.1713C80.877 18.1838 86.8214 14.41 93.1808 14.4715V14.4715ZM93.1808 35.8073C89.329 35.8073 85.9151 34.7301 83.6647 32.4958L105.184 22.2857C105.423 23.1739 105.553 24.1327 105.553 25.169C105.553 32.2817 99.8839 35.8073 93.1783 35.8073H93.1808Z" fill="#00DD7D"/>
<path d="M128.572 34.9418C126.429 34.9418 124.769 34.3223 124.769 31.6029V15.1524H133.549V9.46311H121.314C119.932 9.46311 118.066 9.64759 116.684 9.89584V9.77286C118.066 9.52461 120.001 9.34013 121.177 8.65915C124.357 6.74147 126.085 3.40262 126.223 0L119.38 0.0614932C119.38 4.32957 115.37 9.46084 112.19 9.46084H110.877V15.1501H117.997V30.4254C117.997 37.5996 119.863 40.6288 128.919 40.6288H135.209V34.9395H128.572V34.9418Z" fill="#00DD7D"/>
</svg>
