<svg width="413" height="234" viewBox="0 0 413 234" fill="none" xmlns="http://www.w3.org/2000/svg">
<path d="M411.423 1.3811C411.492 28.5612 411.562 170.386 411.617 197.567C411.451 197.677 411.534 197.843 411.52 197.981C411.41 199.763 411.161 201.517 410.773 203.257C409.183 210.48 405.767 216.709 400.469 221.888C394.619 227.606 387.621 231.017 379.516 232.163C378.769 232.274 377.994 232.232 377.275 232.481C359.351 232.522 53.7325 232.564 35.8078 232.619C35.7248 232.426 35.545 232.508 35.4206 232.495C34.4939 232.37 33.5534 232.301 32.6268 232.149C24.3421 230.741 17.247 227.039 11.521 220.893C4.99291 213.891 1.57672 205.577 1.50756 195.992C1.41075 181.767 1.42458 52.91 1.38309 38.6847C1.38309 36.0882 1.60438 33.5331 2.17144 31.0057C4.77162 19.5426 11.2997 11.0764 21.6728 5.60727C26.721 2.94175 32.1703 1.68495 37.8824 1.58827C38.1037 1.58827 38.325 1.58827 38.5601 1.58827C66.9547 1.51921 383.029 1.45016 411.423 1.3811V1.3811Z" stroke="#00DC7D" stroke-width="2" stroke-miterlimit="10"/>
</svg>
