<svg width="1054" height="618" viewBox="0 0 1054 618" fill="none" xmlns="http://www.w3.org/2000/svg">
<path d="M0 0.0635804V469.017C0.683587 469.462 0.365639 470.177 0.413331 470.765C0.937944 478.315 1.98717 485.77 3.6246 493.161C10.4605 523.855 25.0383 550.272 47.5649 572.208C72.4443 596.432 102.188 610.864 136.606 615.665C139.77 616.11 143.029 615.935 146.113 617.016H908.682C909.032 616.205 909.779 616.555 910.351 616.491C914.294 615.967 918.268 615.649 922.179 614.981C957.344 608.925 987.39 593.078 1011.65 566.899C1039.26 537.095 1053.68 501.713 1053.86 461.005C1054.13 400.556 1053.9 217.715 1053.95 157.25C1053.95 146.235 1052.98 135.331 1050.53 124.602C1039.41 75.9786 1011.6 40.0715 967.486 16.9442C946.025 5.69044 922.91 0.397377 898.683 0C897.729 0.0158951 896.775 0.0635804 895.821 0.0635804C775.335 0.0635804 120.502 0.0635804 0 0.0635804Z" fill="#E4F0F2"/>
</svg>
